<?xml version="1.0" encoding="utf-8"?>
<!-- Generator: Adobe Illustrator 24.3.0, SVG Export Plug-In . SVG Version: 6.00 Build 0)  -->
<svg version="1.1" id="Layer_1" xmlns="http://www.w3.org/2000/svg" xmlns:xlink="http://www.w3.org/1999/xlink" x="0px" y="0px"
	 viewBox="0 0 1000 1000" style="enable-background:new 0 0 1000 1000;" xml:space="preserve">
<style type="text/css">
	.st0{fill:#265787;}
	.st1{fill:#EA7600;}
</style>
<path class="st0" d="M521.3,548.46c1.87-33.35,18.2-62.74,42.84-83.57c24.16-20.46,56.69-32.96,92.18-32.96
	c35.45,0,67.98,12.51,92.16,32.96c24.62,20.83,40.96,50.21,42.84,83.53c1.87,34.27-11.91,66.11-36.07,89.71
	c-24.64,24-59.69,39.07-98.93,39.07c-39.24,0-74.36-15.06-98.98-39.07C533.15,614.54,519.41,582.7,521.3,548.46L521.3,548.46z"/>
<path class="st1" d="M306.29,616.02c0.23,13.05,4.39,38.42,10.64,58.22c13.12,41.93,35.38,80.71,66.35,114.89
	c31.78,35.13,70.92,63.36,116.13,83.39c47.52,21.04,99,31.77,152.48,31.68c53.39-0.07,104.88-11.01,152.39-32.21
	c45.21-20.23,84.31-48.57,116.04-83.73c30.95-34.32,53.18-73.18,66.34-115.1c6.61-21.18,10.79-42.68,12.47-64.25
	c1.64-21.25,0.95-42.54-2.06-63.81c-5.89-41.45-20.23-80.34-42.31-115.79c-20.2-32.58-46.23-61.1-77.18-85.1l0.07-0.05
	L565.25,104.29c-0.28-0.21-0.51-0.44-0.81-0.64c-20.5-15.73-54.96-15.68-77.5,0.09c-22.79,15.94-25.4,42.31-5.11,58.95l-0.09,0.09
	l130.29,105.95l-397.12,0.42h-0.53c-32.82,0.04-64.38,21.57-70.62,48.79c-6.42,27.73,15.87,50.73,50,50.85l-0.05,0.12l201.29-0.39
	L35.81,644.22c-0.46,0.34-0.95,0.69-1.38,1.02c-33.88,25.95-44.84,69.09-23.49,96.39c21.66,27.76,67.71,27.81,101.95,0.16
	l196.03-160.43C308.92,581.36,306.06,603.02,306.29,616.02L306.29,616.02z M810.02,688.54c-40.39,41.15-96.94,64.48-158.13,64.61
	c-61.27,0.11-117.82-23.02-158.21-64.1c-19.74-20.02-34.24-43.05-43.18-67.59c-8.77-24.11-12.17-49.7-9.91-75.53
	c2.13-25.24,9.65-49.32,21.64-71.1c11.78-21.41,28.01-40.76,48.05-57.13c39.26-31.99,89.25-49.32,141.53-49.39
	c52.33-0.07,102.28,17.09,141.58,48.98c20,16.3,36.21,35.58,47.99,56.95c12.05,21.77,19.51,45.75,21.73,71.06
	c2.22,25.79-1.18,51.34-9.95,75.47C844.2,645.4,829.76,668.44,810.02,688.54L810.02,688.54z"/>
</svg>
