<?xml version="1.0" encoding="utf-8"?>
<!-- Generator: Adobe Illustrator 24.3.0, SVG Export Plug-In . SVG Version: 6.00 Build 0)  -->
<svg version="1.1" id="Layer_1" xmlns="http://www.w3.org/2000/svg" xmlns:xlink="http://www.w3.org/1999/xlink" x="0px" y="0px"
	 viewBox="0 0 1000 1000" style="enable-background:new 0 0 1000 1000;" xml:space="preserve">
<style type="text/css">
	.st0{fill:#1572B6;}
	.st1{fill:#33A9DC;}
	.st2{fill:#FFFFFF;}
	.st3{fill:#EBEBEB;}
</style>
<path class="st0" d="M138.95,900.45L58.67,0h882.14l-80.35,900.3L499.2,1000.46C499.2,1000.46,138.95,900.45,138.95,900.45z"/>
<path class="st1" d="M499.75,923.91l291.9-80.93l68.67-769.34H499.75C499.75,73.63,499.75,923.91,499.75,923.91z"/>
<path class="st2" d="M499.74,399.86h146.13l10.1-113.08H499.74V176.34h276.93l-2.65,29.63l-27.14,304.32H499.74V399.86z"/>
<path class="st3" d="M500.41,686.67l-0.49,0.14l-122.99-33.22l-7.87-88.08H258.21l15.48,173.4l226.21,62.79l0.52-0.15L500.41,686.67
	L500.41,686.67z"/>
<path class="st2" d="M636.5,505.62l-13.31,147.9l-123.17,33.25v114.9l226.4-62.74l1.67-18.66l19.22-214.64L636.5,505.62
	L636.5,505.62z"/>
<path class="st3" d="M500.13,176.34v110.43H233.38l-2.22-24.82l-5.03-55.98l-2.65-29.63C223.48,176.34,500.13,176.34,500.13,176.34z
	 M499.74,399.87v110.44H378.31l-2.21-24.82l-5.04-55.99l-2.65-29.63H499.74z"/>
</svg>
