<?xml version="1.0" encoding="utf-8"?>
<!-- Generator: Adobe Illustrator 24.3.0, SVG Export Plug-In . SVG Version: 6.00 Build 0)  -->
<svg version="1.1" id="Layer_1" xmlns="http://www.w3.org/2000/svg" xmlns:xlink="http://www.w3.org/1999/xlink" x="0px" y="0px"
	 viewBox="0 0 1000 1000" style="enable-background:new 0 0 1000 1000;" xml:space="preserve">
<style type="text/css">
	.st0{fill:#E44D26;}
	.st1{fill:#F16529;}
	.st2{fill:#EBEBEB;}
	.st3{fill:#FFFFFF;}
</style>
<path class="st0" d="M139.31,900.04L59.07,0h881.75l-80.33,899.9L499.4,1000L139.31,900.04z"/>
<path class="st1" d="M499.94,923.49l291.77-80.89L860.36,73.6H499.94V923.49z"/>
<path class="st2" d="M499.94,407.41H353.87l-10.08-113.05h156.15V183.98H223.15l2.63,29.62l27.14,304.19h247.02V407.41z
	 M499.94,694.08l-0.49,0.13l-122.93-33.2l-7.86-88.03H257.85l15.46,173.32l226.12,62.78l0.51-0.15L499.94,694.08z"/>
<path class="st3" d="M499.56,407.41v110.38h135.93l-12.81,143.16l-123.12,33.23v114.84l226.3-62.72l1.66-18.66l25.94-290.6
	l2.69-29.63H726.4H499.56z M499.56,183.98v110.39H766.2l2.2-24.81l5.04-55.95l2.64-29.62L499.56,183.98z"/>
</svg>
