<?xml version="1.0" encoding="utf-8"?>
<!-- Generator: Adobe Illustrator 24.3.0, SVG Export Plug-In . SVG Version: 6.00 Build 0)  -->
<svg version="1.1" id="Layer_1" xmlns="http://www.w3.org/2000/svg" xmlns:xlink="http://www.w3.org/1999/xlink" x="0px" y="0px"
	 viewBox="0 0 1000 1000" style="enable-background:new 0 0 1000 1000;" xml:space="preserve">
<style type="text/css">
	.st0{fill:#F0DB4F;}
	.st1{fill:#323330;}
</style>
<rect x="0" y="0" class="st0" width="1000" height="1000"/>
<path class="st1" d="M595.54,825.16c2.44-2.03,56.58-33.63,73.17-42.69c0.79-0.43,1.66-0.73,2.4-1.06c1.52,0.91,2.05,2.34,2.83,3.55
	c5.75,8.86,12.13,17.21,19.58,24.72c15.4,15.53,33.88,24.71,55.63,27.24c12.81,1.49,25.55,1.29,38.14-1.77
	c6.91-1.68,13.46-4.27,19.51-8.05c6.2-3.88,11.35-8.83,15.09-15.16c3.25-5.5,5.08-11.43,5.32-17.82c0.16-4.14,0.04-8.25-0.81-12.34
	c-1.48-7.07-4.49-13.35-9.29-18.77c-4.37-4.93-9.43-9.06-15.07-12.41c-4.92-2.93-9.94-5.72-15.05-8.29
	c-13.35-6.7-27.14-12.43-40.86-18.32c-11.39-4.89-22.81-9.72-33.89-15.3c-10.61-5.34-20.93-11.19-30.68-17.99
	c-9.76-6.81-18.84-14.41-26.84-23.26c-15.43-17.07-24.95-37-29.1-59.57c-2.32-12.65-3.27-25.43-2.3-38.23
	c3.24-42.71,23.06-75.29,60.26-96.91c14.09-8.19,29.4-13.13,45.41-16c17.31-3.1,34.73-3.28,52.2-1.78c12,1.03,23.76,3.27,35.22,6.98
	c21.82,7.07,40.27,19.3,55.58,36.33c7.69,8.56,14.29,17.92,20.17,27.79c0.47,0.79,0.87,1.63,1.28,2.4
	c-0.43,1.59-1.81,2.02-2.89,2.72c-10.5,6.84-21.02,13.66-31.55,20.45c-11.54,7.44-23.11,14.84-34.67,22.26
	c-1,0.64-2.04,1.25-3.29,2.01c-0.68-0.91-1.33-1.71-1.91-2.56c-3.16-4.62-6.18-9.33-9.49-13.84c-3.09-4.2-6.82-7.84-10.87-11.14
	c-7.75-6.3-16.61-10.04-26.45-11.5c-8.64-1.28-17.27-1.37-25.81,0.79c-4.55,1.15-8.87,2.9-12.84,5.43
	c-10.74,6.84-16.62,16.64-17.75,29.29c-0.43,4.81-0.13,9.57,0.8,14.32c1.38,6.99,4.51,13.05,9.27,18.32
	c2.87,3.18,6.11,5.94,9.62,8.4c6.8,4.76,14.03,8.77,21.57,12.16c12.52,5.63,25.1,11.12,37.69,16.59
	c14.92,6.48,29.75,13.14,44.02,20.98c11.23,6.17,22.11,12.9,32.22,20.8c7.16,5.59,13.86,11.69,19.89,18.49
	c14.33,16.15,23.36,34.9,27.41,56.07c2.9,15.15,3.71,30.43,2.29,45.79c-1.76,19.12-7.16,37.11-17.3,53.55
	c-9.56,15.5-22.33,27.77-37.57,37.58c-13.82,8.88-28.86,14.9-44.7,19.02c-15.41,4.01-31.09,6.16-47.02,6.58
	c-15.23,0.4-30.4-0.25-45.46-2.55c-32.49-4.97-62.29-16.47-88.19-37.05c-17.97-14.27-32.53-31.47-43.23-51.85
	c-0.62-1.18-1.17-2.39-1.72-3.61C595.46,825.7,595.54,825.41,595.54,825.16z"/>
<path class="st1" d="M263.51,835.61c2.95-2.58,45.17-28.41,70.49-43.19c1.82-1.06,3.59-2.24,5.85-3.01
	c0.71,1.08,1.38,2.03,1.98,3.03c2.38,4.01,4.66,8.08,7.12,12.05c3.87,6.24,8.28,12.08,13.45,17.34
	c11.3,11.5,25.15,16.04,40.99,15.27c5.06-0.25,10.09-0.66,15.05-1.88c12.87-3.16,21.72-10.86,26.56-23.19
	c2.56-6.51,3.99-13.28,4.49-20.22c0.45-6.11,0.7-12.24,0.7-18.37c0.04-102.51,0.04-205.01,0.04-307.52c0-1.98,0.05-3.97,0.08-6.06
	c1-0.23,1.75-0.48,2.51-0.55c1.06-0.09,2.13-0.04,3.2-0.04c27.46,0,54.92,0,82.38,0.01c1.71,0,3.44-0.2,5.33,0.4
	c0.13,0.79,0.33,1.54,0.37,2.3c0.06,1.2,0.03,2.4,0.03,3.6c0,103.44-0.01,206.88,0.02,310.31c0,10.41-0.35,20.78-1.67,31.12
	c-1.93,15.16-5.58,29.84-11.87,43.82c-11.9,26.45-31.22,45.43-57.65,57.25c-11.39,5.09-23.32,8.3-35.58,10.42
	c-15.59,2.69-31.3,3.11-47.03,2.2c-16.86-0.98-33.27-4.38-49.06-10.5c-24.89-9.65-45.17-25.36-61.17-46.66
	c-5.78-7.69-10.79-15.87-15.05-24.49C264.55,837.97,264.08,836.87,263.51,835.61z"/>
</svg>
