<?xml version="1.0" encoding="utf-8"?>
<!-- Generator: Adobe Illustrator 24.3.0, SVG Export Plug-In . SVG Version: 6.00 Build 0)  -->
<svg version="1.1"
	 id="svg2169" xmlns:cc="http://web.resource.org/cc/" xmlns:dc="http://purl.org/dc/elements/1.1/" xmlns:inkscape="http://www.inkscape.org/namespaces/inkscape" xmlns:rdf="http://www.w3.org/1999/02/22-rdf-syntax-ns#" xmlns:sodipodi="http://sodipodi.sourceforge.net/DTD/sodipodi-0.dtd" xmlns:svg="http://www.w3.org/2000/svg"
	 xmlns="http://www.w3.org/2000/svg" xmlns:xlink="http://www.w3.org/1999/xlink" x="0px" y="0px" viewBox="0 0 1000 1000"
	 style="enable-background:new 0 0 1000 1000;" xml:space="preserve">
<style type="text/css">
	.st0{fill:url(#path8615_1_);}
	.st1{fill:#FFD242;}
</style>
<g>
	<linearGradient id="path8615_1_" gradientUnits="userSpaceOnUse" x1="0" y1="373.554" x2="741.5638" y2="373.554">
		<stop  offset="0" style="stop-color:#387EB8"/>
		<stop  offset="0.5" style="stop-color:#3773A6"/>
		<stop  offset="1" style="stop-color:#366994"/>
	</linearGradient>
	<path id="path8615" class="st0" d="M496.4,0C242.53,0,258.39,110.67,258.39,110.67l0.28,114.65h242.25v34.42H162.45
		c0,0-162.45-18.52-162.45,238.97C0,756.2,141.79,747.07,141.79,747.07h84.62V627.58c0,0-4.56-142.53,139.52-142.53
		s240.27,0,240.27,0S741.2,487.25,741.2,353.9s0-220.48,0-220.48S761.69,0,496.4,0z M362.82,77.1c24.1,0,43.58,19.58,43.58,43.81
		s-19.48,43.81-43.58,43.81c-24.1,0-43.58-19.58-43.58-43.81S338.71,77.1,362.82,77.1z"/>
	<path id="path8620" class="st1" d="M503.6,1000c253.86,0,238.01-110.67,238.01-110.67l-0.28-114.65H499.08v-34.42h338.48
		c0,0,162.45,18.52,162.45-238.97c0-257.49-141.79-248.36-141.79-248.36h-84.62v119.49c0,0,4.56,142.53-139.52,142.53
		s-240.27,0-240.27,0S258.8,512.75,258.8,646.1s0,220.48,0,220.48S238.31,1000,503.6,1000z M637.18,922.9
		c-24.1,0-43.58-19.58-43.58-43.81c0-24.23,19.48-43.81,43.58-43.81c24.1,0,43.58,19.58,43.58,43.81
		C680.77,903.32,661.29,922.9,637.18,922.9z"/>
</g>
</svg>
