<?xml version="1.0" encoding="utf-8"?>
<!-- Generator: Adobe Illustrator 24.3.0, SVG Export Plug-In . SVG Version: 6.00 Build 0)  -->
<svg version="1.1" id="Layer_1" xmlns="http://www.w3.org/2000/svg" xmlns:xlink="http://www.w3.org/1999/xlink" x="0px" y="0px"
	 viewBox="0 0 1000 1000" style="enable-background:new 0 0 1000 1000;" xml:space="preserve">
<style type="text/css">
	.st0{fill:#61DAFB;}
</style>
<path class="st0" d="M209.84,668.52c-2.29-0.73-4.19-1.36-6.12-1.94c-29.19-8.72-57.55-19.59-84.79-33.29
	c-21.08-10.6-41.16-22.79-59.67-37.49c-13.72-10.9-26.26-22.98-36.74-37.09c-8.29-11.16-14.95-23.16-18.89-36.56
	c-2.65-9.02-4.06-18.22-3.52-27.62c0.65-11.46,3.54-22.38,8.35-32.82c5.02-10.89,11.65-20.73,19.4-29.84
	c10.31-12.11,22.13-22.6,34.87-32.08c18.4-13.7,38.23-25.01,58.91-34.86c26.53-12.65,54.07-22.62,82.25-30.91
	c2.05-0.6,4.09-1.26,6.36-1.96c-0.13-1.22-0.13-2.29-0.37-3.29c-3.05-12.48-5.76-25.02-8.04-37.66
	c-1.92-10.64-3.54-21.33-4.88-32.06c-1.34-10.74-2.3-21.51-2.83-32.31c-0.57-11.48-0.62-22.99-0.18-34.48
	c0.73-19.11,3.11-37.98,8.18-56.46c4.1-14.95,9.91-29.17,18.7-42.05c9.03-13.23,20.44-23.72,35.21-30.3
	c8.59-3.83,17.57-6.1,26.91-7.17c4.45-0.51,8.9-0.65,13.36-0.68c11.7-0.08,23.17,1.73,34.51,4.43c17.56,4.2,34.27,10.76,50.46,18.68
	c22.18,10.85,42.94,24.03,62.78,38.67c18.53,13.67,36.09,28.51,52.86,44.28c1.07,1.01,2.17,2,3.16,2.91c1.84-0.41,2.7-1.71,3.75-2.7
	c11.67-11.1,23.7-21.79,36.2-31.95c21.45-17.45,44-33.29,68.32-46.52c17.02-9.25,34.66-17.06,53.33-22.43
	c10.29-2.96,20.75-5.12,31.41-5.94c7.95-0.61,15.93-0.6,23.9,0.44c7.82,1.02,15.39,2.87,22.69,5.85
	c14.02,5.71,25.26,14.99,34.47,26.87c8.2,10.58,14.11,22.4,18.65,34.92c4.82,13.26,7.92,26.95,9.97,40.89
	c2.95,20,3.69,40.12,2.95,60.29c-0.6,16.35-2.11,32.64-4.4,48.85c-2.66,18.89-6.19,37.6-10.64,56.14c-0.25,1.02-0.28,2.09-0.44,3.38
	c1.53,0.49,2.91,0.97,4.31,1.39c25.04,7.4,49.59,16.13,73.41,26.85c23.48,10.57,46.04,22.8,66.92,37.96
	c12.29,8.93,23.82,18.73,34.05,29.99c7.86,8.64,14.76,17.97,20.21,28.33c5.74,10.88,9.49,22.39,10.58,34.68
	c0.91,10.36-0.4,20.51-3.39,30.45c-4.14,13.79-11.18,26.04-19.92,37.37c-9.98,12.93-21.75,24.07-34.52,34.18
	c-15.1,11.96-31.34,22.18-48.28,31.3c-30.21,16.28-61.98,28.78-94.71,38.95c-2.16,0.67-4.44,1.07-6.63,2.38
	c0.3,1.48,0.53,2.93,0.88,4.35c3.46,13.91,6.24,27.97,8.48,42.12c1.44,9.07,2.49,18.21,3.58,27.34c2.29,19.24,2.93,38.57,2.27,57.92
	c-0.81,23.74-3.94,47.14-11.31,69.83c-3.64,11.23-8.35,21.98-14.56,32.04c-4.57,7.41-9.91,14.18-16.19,20.22
	c-11.74,11.28-25.68,18.26-41.59,21.42c-11.92,2.37-23.91,2.37-35.94,1.03c-19.12-2.14-37.21-7.92-54.8-15.45
	c-20.97-8.97-40.57-20.39-59.36-33.24c-24.52-16.76-47.18-35.8-68.7-56.24c-0.96-0.91-1.98-1.77-3.16-2.82
	c-1.17,1.05-2.18,1.91-3.14,2.83c-15.51,14.74-31.75,28.62-48.87,41.46c-19.84,14.89-40.62,28.27-62.84,39.34
	c-17.22,8.58-35.02,15.67-53.79,20.13c-7.76,1.84-15.6,3.19-23.56,3.96c-5.54,0.53-11.07,0.76-16.61,0.56
	c-14.64-0.53-28.66-3.58-41.68-10.57c-10.3-5.53-18.82-13.12-26.07-22.21c-9.48-11.89-15.96-25.36-20.73-39.7
	c-3.98-11.96-6.65-24.22-8.34-36.71c-2.59-19.08-3.41-38.22-2.56-57.46c0.54-12.03,1.44-24.03,2.85-35.98
	c1.67-14.1,3.9-28.11,6.8-42.01c1.82-8.73,3.86-17.41,5.79-26.12C209.37,671.33,209.55,670.13,209.84,668.52z M682.8,498.81
	c-0.68-1.44-1.17-2.55-1.72-3.64c-25.89-51.69-54.69-101.69-86.91-149.71c-0.6-0.9-1.24-1.77-1.83-2.68
	c-0.73-1.12-1.74-1.57-3.06-1.64c-4.05-0.23-8.09-0.59-12.15-0.81c-7.02-0.38-14.05-0.76-21.08-1.04
	c-12.03-0.48-24.06-1.06-36.1-1.26c-13.26-0.22-26.52-0.17-39.78-0.01c-10.55,0.12-21.11,0.45-31.65,0.94
	c-11.35,0.52-22.68,1.34-34.03,2.03c-6.41,0.39-4.93-0.83-8.98,5.16c-32,47.37-60.48,96.76-85.47,148.16
	c-2.93,6.03-2.93,4.04-0.02,10.01c25.29,51.86,54.2,101.64,86.59,149.39c0.53,0.78,1.11,1.54,1.6,2.34
	c0.79,1.28,1.94,1.71,3.41,1.78c9.46,0.48,18.91,1.19,28.37,1.48c16.09,0.49,32.19,0.87,48.29,1.04
	c22.73,0.24,45.47,0.02,68.19-0.98c5.81-0.26,11.62-0.55,17.43-0.87c4.05-0.22,8.1-0.47,12.15-0.77c1.88-0.14,3.75-0.41,5.44-0.6
	c4.1-4.93,20.76-30.98,35.71-55.91C647.17,567.94,665.8,533.92,682.8,498.81z M221.9,373.06c-1.45,0.34-2.76,0.57-4.01,0.94
	c-5.82,1.75-11.65,3.47-17.43,5.33c-25.64,8.26-50.61,18.14-74.46,30.72c-16.9,8.92-33.04,19.01-47.71,31.34
	c-8.83,7.42-16.97,15.5-23.72,24.91c-3.64,5.07-6.75,10.43-9.05,16.25c-3.94,9.97-4.18,19.98-0.57,30.1
	c2.33,6.55,5.67,12.55,9.62,18.23c5.59,8.03,12.18,15.18,19.34,21.82c14.67,13.59,31.1,24.72,48.46,34.52
	c30.39,17.15,62.69,29.72,96.07,39.66c0.87,0.26,1.8,0.31,2.92,0.49c0.46-1.32,0.89-2.44,1.25-3.57
	c10.16-32.24,21.91-63.89,35.25-94.95c3.68-8.57,7.5-17.07,11.27-25.6c1.98-4.48,1.94-3.44-0.09-7.91
	c-17.6-38.65-33.1-78.12-45.81-118.66C222.86,375.54,222.4,374.43,221.9,373.06z M386.01,698.39c-7.85-0.72-15.4-1.35-22.92-2.11
	c-7.53-0.76-15.05-1.6-22.56-2.51c-7.38-0.89-14.74-1.85-22.1-2.89c-7.49-1.06-14.97-2.17-22.43-3.41
	c-7.46-1.23-14.9-2.6-22.33-3.99c-7.41-1.38-14.75-3.1-21.99-4.44c-0.42,0.44-0.7,0.61-0.76,0.84c-0.42,1.42-0.83,2.85-1.17,4.29
	c-4.59,19.33-8.41,38.81-10.85,58.54c-1.56,12.62-2.75,25.26-3.07,37.97c-0.45,18.27,0.08,36.49,3.32,54.54
	c1.94,10.8,4.68,21.38,9.03,31.48c3.23,7.49,7.26,14.5,12.81,20.54c5.35,5.83,11.82,9.74,19.49,11.78
	c9.45,2.51,19.01,2.48,28.58,1.27c9.67-1.22,19.09-3.6,28.34-6.69c15.57-5.19,30.34-12.13,44.6-20.21
	c32.43-18.38,61.4-41.34,88.33-66.98c0.56-0.53,0.98-1.21,1.56-1.92c-7.66-8.63-15.29-17.02-22.69-25.61
	c-7.41-8.61-14.69-17.33-21.83-26.16c-7.13-8.84-14.1-17.81-20.97-26.85C399.54,716.86,392.87,707.67,386.01,698.39z M531.78,804.14
	c0.39,1.56,1.64,2.27,2.59,3.18c13.88,13.29,28.38,25.88,43.62,37.6c18.48,14.2,37.82,27.05,58.71,37.47
	c16.26,8.11,33.07,14.72,51.11,17.71c8.45,1.4,16.9,1.84,25.43,0.58c10.17-1.5,18.71-5.9,25.57-13.59c3.8-4.27,6.93-8.99,9.6-14.02
	c5.43-10.22,8.92-21.14,11.49-32.37c3.39-14.81,4.84-29.87,5.44-45.02c0.62-15.56-0.15-31.1-1.66-46.58
	c-0.94-9.68-2.33-19.32-3.76-28.94c-2.03-13.64-4.84-27.13-8.13-40.52c-0.19-0.76-0.53-1.49-0.81-2.28c-0.79,0-1.47-0.11-2.09,0.02
	c-2.64,0.55-5.26,1.21-7.9,1.78c-13.47,2.9-26.98,5.59-40.58,7.78c-7.73,1.25-15.46,2.58-23.2,3.73
	c-6.82,1.01-13.66,1.85-20.49,2.71c-5.36,0.67-10.74,1.27-16.11,1.86c-6.58,0.73-13.16,1.54-19.76,2.08
	c-6.25,0.51-5.14,0.02-8.47,4.78c-24.26,34.73-50.13,68.2-78.57,99.63C533.08,802.52,532.42,803.37,531.78,804.14z M470.68,195.2
	c-1.44-1.42-2.57-2.57-3.75-3.67c-10.67-9.98-21.68-19.57-33.11-28.68c-20.34-16.21-41.69-30.92-64.81-42.95
	c-15.27-7.94-31.03-14.65-47.82-18.67c-11.35-2.72-22.81-4.4-34.55-2.83c-10.13,1.36-18.96,5.18-25.93,12.87
	c-3.75,4.14-6.8,8.74-9.38,13.67c-4.48,8.55-7.5,17.64-9.74,27c-3.67,15.31-5.25,30.89-5.62,46.6c-0.23,9.87-0.04,19.73,0.56,29.59
	c0.73,12.02,1.96,23.98,3.66,35.89c2.54,17.8,6.02,35.42,10.3,52.89c0.35,1.42,0.78,2.81,1.24,4.44c1.53-0.22,2.86-0.32,4.15-0.61
	c28.22-6.35,56.72-11.15,85.38-14.94c12.99-1.72,26.05-2.95,39.08-4.36c5.01-0.54,5.02-0.48,7.89-4.49
	c0.24-0.33,0.47-0.66,0.71-0.99c24.55-34.2,50.78-67.04,79.37-97.96C469.03,197.22,469.69,196.37,470.68,195.2z M748.83,321.98
	c0.53-1.92,0.96-3.33,1.3-4.76c3.74-16.2,6.88-32.51,9.21-48.97c1.63-11.52,2.93-23.07,3.6-34.67c0.7-12.14,1.1-24.3,0.47-36.48
	c-0.58-11.22-1.56-22.37-3.51-33.44c-1.81-10.27-4.41-20.33-8.33-30.02c-3.27-8.06-7.33-15.67-13.08-22.28
	c-5.96-6.85-13.3-11.3-22.24-13.21c-8.75-1.86-17.48-1.55-26.21-0.24c-8.84,1.33-17.43,3.67-25.87,6.61
	c-17.05,5.94-33.05,14.07-48.47,23.38c-22.41,13.53-43.18,29.29-62.85,46.52c-6.71,5.88-13.23,11.98-19.8,18.03
	c-0.95,0.87-2.26,1.56-2.32,3.28c0.56,0.65,1.16,1.38,1.8,2.07c21.54,23.41,41.7,47.96,60.75,73.42
	c6.72,8.99,13.28,18.09,19.8,27.23c1.21,1.7,2.55,2.63,4.6,2.79c3.37,0.28,6.73,0.65,10.08,1.03c10.2,1.15,20.43,2.16,30.6,3.55
	c11.78,1.61,23.51,3.52,35.25,5.38c15.34,2.43,30.58,5.42,45.75,8.79C742.36,320.67,745.39,321.26,748.83,321.98z M780.81,625.34
	c1.63-0.48,2.91-0.85,4.19-1.23c12.43-3.71,24.68-7.96,36.79-12.61c22.87-8.79,45.05-19.05,66.07-31.71
	c14.28-8.61,27.84-18.2,40.05-29.61c7.54-7.04,14.4-14.67,20-23.36c3.46-5.37,6.33-11.02,8.08-17.18
	c1.49-5.25,2.12-10.57,1.36-16.04c-0.81-5.84-2.81-11.25-5.5-16.44c-3.44-6.64-7.86-12.61-12.77-18.23
	c-7.06-8.08-15.05-15.15-23.53-21.7c-15.79-12.2-32.92-22.23-50.77-31.07c-26.47-13.1-54.11-23.19-82.39-31.6
	c-1.14-0.34-2.31-0.54-3.84-0.89c-2.86,8.58-5.46,17.08-8.43,25.46c-2.98,8.41-5.94,16.82-9.09,25.16
	c-3.19,8.47-6.52,16.89-9.94,25.28c-3.37,8.26-6.85,16.47-10.4,24.65c-3.55,8.17-7.25,16.26-10.78,24.17
	c6.3,14.13,12.65,27.87,18.55,41.79c5.9,13.93,11.58,27.97,16.94,42.12C770.77,596.4,775.61,610.72,780.81,625.34z M646.5,651.69
	c0.34,0.08,0.72,0.28,1.07,0.23c4.29-0.51,8.6-0.95,12.87-1.6c11.48-1.73,22.96-3.51,34.43-5.35c14.14-2.26,28.16-5.14,42.13-8.26
	c0.74-0.16,1.41-0.59,2.28-0.97c-0.44-1.5-0.8-2.78-1.2-4.05c-5.05-15.69-10.63-31.2-16.75-46.51c-4.56-11.42-9.39-22.72-14.1-34.08
	c-0.39-0.94-0.69-1.93-1.56-2.51c-0.41,0.31-0.72,0.42-0.83,0.63c-18.06,34.5-37.56,68.18-58.19,101.2
	c-0.14,0.22-0.17,0.5-0.22,0.77C646.41,651.33,646.47,651.47,646.5,651.69z M262.9,638.08c3.78,0.8,7.32,1.63,10.88,2.29
	c11.56,2.11,23.12,4.25,34.71,6.2c7.86,1.32,15.76,2.4,23.66,3.48c7.1,0.97,14.21,1.78,21.32,2.63c0.3,0.04,0.64-0.28,0.88-0.39
	c0.01-0.31,0.04-0.44,0.02-0.57c-0.02-0.13-0.05-0.27-0.12-0.39c-4.93-7.92-9.93-15.8-14.8-23.76
	c-15.05-24.57-29.24-49.62-42.55-75.18c-0.25-0.48-0.52-0.95-0.79-1.41c-0.07-0.11-0.15-0.23-0.24-0.32
	c-0.1-0.09-0.21-0.18-0.33-0.23c-0.12-0.05-0.26-0.05-0.39-0.07C290.67,556.64,264.75,626.9,262.9,638.08z M441.93,701.68
	c0.26,0.97,0.26,1.41,0.48,1.7c17.95,23.74,36.98,46.58,57.12,68.49c0.62,0.67,1.35,1.24,2.07,1.89c1.53-0.82,2.36-2.08,3.33-3.16
	c15.65-17.4,30.45-35.5,44.64-54.1c3.2-4.19,6.35-8.41,9.48-12.66c0.41-0.55,0.5-1.34,0.88-2.39
	C520.46,703.25,481.41,703.13,441.93,701.68z M441.57,296.67c10.15,0.38,19.84-0.72,29.56-0.74c9.73-0.02,19.47-0.18,29.2-0.18
	c9.73,0,19.47,0.16,29.2,0.19c9.68,0.03,19.33,1.15,29.05,0.73c0-0.54,0.11-0.87-0.02-1.04c-17.24-23.42-35.83-45.74-55.38-67.26
	c-0.8-0.88-1.71-1.66-2.54-2.46C492.42,232.53,446.54,287.54,441.57,296.67z M737.06,363.2c-7.74-3.19-70.57-14.41-89.87-16.08
	c-0.17-0.02-0.37,0.29-0.56,0.45c0.02,0.26-0.04,0.58,0.08,0.78c20.46,32.5,39.68,65.72,57.75,99.62c0.11,0.21,0.4,0.33,0.76,0.61
	c0.33-0.37,0.77-0.71,0.99-1.15C713.2,433.31,735.56,372.33,737.06,363.2z M294.92,448.38c0.5-0.25,0.84-0.3,0.95-0.49
	c0.69-1.16,1.37-2.33,1.99-3.52c14.71-28.16,30.44-55.73,47.22-82.7c2.57-4.13,5.2-8.23,7.75-12.37c0.37-0.6,0.48-1.36,0.74-2.15
	c-12.63,0.46-81.32,12-89.87,15.61C263.9,369.32,288.31,435.73,294.92,448.38z"/>
<path class="st0" d="M499.85,588.15c-47.17,0.33-89.01-37.94-88.91-89.12c0.1-51.5,42.45-89.01,89.21-88.91
	c47.89,0.1,89.21,39.09,88.91,89.62C588.76,549.56,547.89,588.58,499.85,588.15z"/>
</svg>
