<?xml version="1.0" encoding="utf-8"?>
<!-- Generator: Adobe Illustrator 24.3.0, SVG Export Plug-In . SVG Version: 6.00 Build 0)  -->
<svg version="1.1" id="Layer_1" xmlns="http://www.w3.org/2000/svg" xmlns:xlink="http://www.w3.org/1999/xlink" x="0px" y="0px"
	 viewBox="0 0 1000 1000" style="enable-background:new 0 0 1000 1000;" xml:space="preserve">
<style type="text/css">
	.st0{fill:#007ACC;}
	.st1{fill:#FFFFFF;}
</style>
<rect class="st0" width="1000" height="1000"/>
<path class="st1" d="M221.14,503.32l-0.32,40.95h65.08h65.08v184.92v184.92h46.03h46.03V729.19V544.27h65.08h65.08v-40.16
	c0-22.22-0.48-40.79-1.11-41.27c-0.48-0.63-79.68-0.95-175.71-0.79l-174.76,0.48L221.14,503.32z"/>
<path class="st1" d="M806.9,461.36c25.4,6.35,44.76,17.62,62.54,36.03c9.21,9.84,22.86,27.78,23.97,32.06
	c0.32,1.27-43.17,30.48-69.52,46.83c-0.95,0.63-4.76-3.49-9.05-9.84c-12.86-18.73-26.35-26.83-46.98-28.25
	c-30.32-2.06-49.84,13.81-49.68,40.32c0,7.78,1.11,12.38,4.29,18.73c6.67,13.81,19.05,22.06,57.94,38.89
	c71.59,30.79,102.22,51.11,121.27,80c21.27,32.22,26.03,83.65,11.59,121.9c-15.87,41.59-55.24,69.84-110.63,79.21
	c-17.14,3.02-57.78,2.54-76.19-0.79c-40.16-7.14-78.25-26.98-101.75-53.02c-9.21-10.16-27.14-36.67-26.03-38.57
	c0.48-0.64,4.6-3.17,9.21-5.87c4.44-2.54,21.27-12.22,37.14-21.43l28.73-16.67l6.03,8.89c8.41,12.86,26.83,30.48,37.94,36.35
	c31.9,16.83,75.71,14.44,97.3-4.92c9.21-8.41,13.02-17.14,13.02-30c0-11.59-1.43-16.67-7.46-25.4c-7.78-11.11-23.65-20.48-68.73-40
	c-51.59-22.22-73.81-36.03-94.13-57.94c-11.75-12.7-22.86-33.02-27.46-50c-3.81-14.13-4.76-49.52-1.75-63.81
	c10.64-49.84,48.25-84.6,102.54-94.92C748.65,455.81,789.6,457.08,806.9,461.36z"/>
</svg>
