<?xml version="1.0" encoding="utf-8"?>
<!-- Generator: Adobe Illustrator 24.3.0, SVG Export Plug-In . SVG Version: 6.00 Build 0)  -->
<svg version="1.1" id="Layer_1" xmlns="http://www.w3.org/2000/svg" xmlns:xlink="http://www.w3.org/1999/xlink" x="0px" y="0px"
	 viewBox="0 0 256 256" style="enable-background:new 0 0 256 256;" xml:space="preserve">
<style type="text/css">
	.st0{fill:#007ACC;}
	.st1{fill:#FFFFFF;}
</style>
<rect class="st0" width="256" height="256"/>
<path class="st1" d="M56.61,128.85l-0.08,10.48h16.66h16.66v47.34v47.34h11.78h11.78v-47.34v-47.34h16.66h16.66v-10.28
	c0-5.69-0.12-10.44-0.28-10.57c-0.12-0.16-20.4-0.24-44.98-0.2l-44.74,0.12L56.61,128.85z"/>
<path class="st1" d="M206.57,118.11c6.5,1.63,11.46,4.51,16.01,9.22c2.36,2.52,5.85,7.11,6.14,8.21c0.08,0.33-11.05,7.8-17.8,11.99
	c-0.24,0.16-1.22-0.89-2.32-2.52c-3.29-4.79-6.75-6.87-12.03-7.23c-7.76-0.53-12.76,3.54-12.72,10.32c0,1.99,0.28,3.17,1.1,4.79
	c1.71,3.54,4.88,5.65,14.83,9.96c18.33,7.88,26.17,13.08,31.05,20.48c5.45,8.25,6.66,21.41,2.97,31.21
	c-4.06,10.65-14.14,17.88-28.32,20.28c-4.39,0.77-14.79,0.65-19.5-0.2c-10.28-1.83-20.03-6.91-26.05-13.57
	c-2.36-2.6-6.95-9.39-6.66-9.87c0.12-0.16,1.18-0.81,2.36-1.5c1.14-0.65,5.45-3.13,9.51-5.49l7.35-4.27l1.54,2.28
	c2.15,3.29,6.87,7.8,9.71,9.31c8.17,4.31,19.38,3.7,24.91-1.26c2.36-2.15,3.33-4.39,3.33-7.68c0-2.97-0.37-4.27-1.91-6.5
	c-1.99-2.84-6.05-5.24-17.59-10.24c-13.21-5.69-18.9-9.22-24.1-14.83c-3.01-3.25-5.85-8.45-7.03-12.8
	c-0.98-3.62-1.22-12.68-0.45-16.34c2.72-12.76,12.35-21.66,26.25-24.3C191.65,116.69,202.14,117.01,206.57,118.11z"/>
</svg>
